<svg xmlns="http://www.w3.org/2000/svg" width="512" height="512" viewBox="0 0 512 512">
<defs>
      <linearGradient id="d" x1="0" y1="0" x2="0" y2="1">
        <stop offset="0" stop-color="#FF6FA3"/>
        <stop offset="1" stop-color="#FF3B81"/>
      </linearGradient>
      <linearGradient id="d2" x1="0" y1="0" x2="0" y2="1">
        <stop offset="0" stop-color="#FF3B81"/>
        <stop offset="1" stop-color="#E62E70"/>
      </linearGradient>
    </defs>
<rect width="512" height="512" rx="112" fill="url(#d)"/>
<path d="M168 196 h176 a20 20 0 0 1 20 22 l-16 150 a24 24 0 0 1 -24 22 H188 a24 24 0 0 1 -24 -22 l-16 -150 a20 20 0 0 1 20 -22 z" fill="#FFFFFF"/>
<path d="M206 196 v-12 a50 50 0 0 1 100 0 v12" fill="none" stroke="#FFFFFF" stroke-width="24" stroke-linecap="round"/>
<path d="M256 350 c-46 -30 -70 -58 -70 -90 a36 36 0 0 1 70 -14 a36 36 0 0 1 70 14 c0 32 -24 60 -70 90 z" fill="#FF3B81"/>
</svg>